<svg width="146" height="60" fill="none" xmlns="http://www.w3.org/2000/svg"><path fill-rule="evenodd" clip-rule="evenodd" d="M103.304 13.623a3.296 3.296 0 0 0 .736 4.691l.184.092a3.295 3.295 0 0 0 4.69-.736 3.296 3.296 0 0 0-.736-4.69l-.184-.093c-1.471-1.011-3.586-.736-4.69.736zm21.244 34.401l20.969-3.127-3.127-20.972-17.842 24.1zm-8.277-24.835c-1.103 1.472-.827 3.587.644 4.691l.092.092a3.295 3.295 0 0 0 4.69-.736 3.297 3.297 0 0 0-.735-4.69c-1.472-1.104-3.587-.828-4.691.643zM89.693 5.53c-.184.184-.276.368-.368.644a3.268 3.268 0 0 0 1.655 4.323l.184.092A3.38 3.38 0 0 0 95.58 8.84a3.382 3.382 0 0 0-1.748-4.415c-1.471-.644-3.219-.184-4.138 1.104zm-15.45-4.14c-.369.46-.553 1.012-.645 1.564-.183 1.84 1.012 3.496 2.851 3.68h.368c1.84.184 3.495-1.196 3.587-3.036.184-1.84-1.196-3.495-3.035-3.587-1.287-.092-2.483.46-3.127 1.38zm-15.911.46c-.552.736-.736 1.564-.644 2.484.276 1.84 1.931 3.035 3.77 2.76L61.736 7c1.839-.368 3.034-2.116 2.667-3.956-.368-1.84-2.116-3.035-3.955-2.667-.828.276-1.655.736-2.115 1.472zM43.065 6.726c-.735 1.011-.92 2.3-.276 3.495.828 1.656 2.851 2.3 4.507 1.564l.184-.092c1.655-.828 2.39-2.76 1.563-4.416-.828-1.655-2.759-2.391-4.414-1.563h-.368c-.46.276-.92.644-1.196 1.012zM29.914 15.83a3.468 3.468 0 0 0 .276 4.323 3.25 3.25 0 0 0 4.69.092l.092-.092c1.38-1.196 1.472-3.311.276-4.691s-3.31-1.472-4.69-.276l-.276.184c-.092.092-.276.276-.368.46zM.76 53.635l-.092.184a3.297 3.297 0 0 0 .736 4.691 3.295 3.295 0 0 0 4.69-.736l.092-.184a3.297 3.297 0 0 0-.736-4.69c-1.563-1.105-3.678-.829-4.69.735zm9.473-12.877l-.092.184a3.297 3.297 0 0 0 .736 4.69 3.295 3.295 0 0 0 4.69-.735l.092-.184a3.297 3.297 0 0 0-.736-4.691 3.295 3.295 0 0 0-4.69.736zm9.564-12.878l-.092.184a3.297 3.297 0 0 0 .736 4.691 3.295 3.295 0 0 0 4.69-.736l.093-.183a3.297 3.297 0 0 0-.736-4.691c-1.564-1.104-3.587-.736-4.69.735z" fill="#CACACA"/></svg>