<svg width="135" height="132" fill="none" xmlns="http://www.w3.org/2000/svg"><path d="M67.5 0C104.776 0 135 29.52 135 65.93c0 36.41-30.224 65.931-67.5 65.931-37.276 0-67.5-29.521-67.5-65.93C0 29.52 30.224 0 67.5 0zm0 12.13c-30.423 0-55.08 24.085-55.08 53.8 0 29.716 24.657 53.8 55.08 53.8s55.081-24.084 55.081-53.8c0-29.715-24.658-53.8-55.081-53.8z" fill="#528E9C"/><path fill-rule="evenodd" clip-rule="evenodd" d="M67.5 20.702c25.582 0 46.305 20.259 46.305 45.228 0 24.97-20.74 45.229-46.305 45.229-25.564 0-46.305-20.26-46.305-45.229 0-24.97 20.723-45.228 46.305-45.228z" fill="#528E9C"/><path fill-rule="evenodd" clip-rule="evenodd" d="M63.91 68.02c0 .726.544 1.169 1.632 1.31v-2.62a2.03 2.03 0 0 0-1.16.336c-.327.213-.472.531-.472.974zm2.702 3.312v2.992c.507 0 .924-.141 1.25-.425.345-.283.508-.655.508-1.098 0-.761-.58-1.257-1.758-1.47zm2.846-15.602c.036 0 .09.018.127.018.616-.815 1.305-1.913 2.14-3.33 1.65-2.78-2.448-2.762-5.512-2.762-3.064 0-7.035-.07-5.566 2.763.707 1.399 1.432 2.514 2.157 3.382a.601.601 0 0 1 .236-.07h6.418z" fill="#fff"/><path fill-rule="evenodd" clip-rule="evenodd" d="M69.24 74.75c-.598.566-1.468.903-2.61 1.01v1.433h-1.088V75.76c-1.976-.16-3.245-1.098-3.808-2.798l1.723-.39c.308 1.098.997 1.683 2.085 1.771v-3.081c-1.414-.319-2.32-.708-2.756-1.204-.435-.478-.635-1.063-.635-1.736 0-1.753 1.125-2.762 3.39-3.028v-1.116h1.089v1.116c1.65.213 2.701 1.01 3.136 2.39l-1.613.337c-.272-.797-.78-1.24-1.523-1.292v2.727c1.033.283 1.74.513 2.103.673.362.159.689.46.979.92.29.46.435.992.435 1.594-.018.815-.308 1.541-.907 2.108zm.98-17.125c-.127.531-.417.903-.762.903h-6.4c-.399 0-.743-.478-.816-1.115-4.732 2.798-8.594 9.987-8.594 15.637 0 7.19 5.62 9.173 12.565 9.173 6.944 0 12.582-2.001 12.582-9.173 0-5.526-4.152-12.485-8.575-15.425z" fill="#fff"/></svg>